# xmcd
#
# Track frame offsets:
# 150
# 9748
# 21449
# 38976
# 52214
# 61616
# 76571
# 94950
# 112810
# 126452
# 135969
# 154531
# 166141
# 179696
# 191109
# 201858
# 216688
# 228137
# 240480
# 249765
# 265991
# 276642
#
# Disc length: 3827 seconds
#
#
# Revision: 1
# Processed by: cddbd v1.5.2PL0 Copyright (c) Steve Scherf et al.
# Submitted via: FreeRIP 2.92 
#
DISCID=360ef116
DTITLE=Various Artist - Nejlepsi tramsky vyber
DYEAR=2007
DGENRE=Country
TTITLE0=Brontosauri - Valcicek
TTITLE1=Spojene osady Praha - Rodne udoli
TTITLE2=Tony Linhard and Helena Marsalkova and Frantisek Nedved - Az ztichnou bile skaly
TTITLE3=Wabi Ryvola - Tak uz mi ma holka mava
TTITLE4=Pavel Zalman Lohonka - Ho ho Watanay
TTITLE5=Magison - Shorty a Joe
TTITLE6=Steamboat Stompers - Bessie, Dakota, kapitane
TTITLE7=Vaclav Marsalek and Spojene osady Praha - Je na zapad cesta dlouha
TTITLE8=Jitka Vrbova - Co nevidet se sejdem
TTITLE9=Spojene osady Praha - Ruty-suty
TTITLE10=Wabi Ryvola and Spojene osady Praha - Tereza (Osamely mesto)
TTITLE11=Honza Vycital - Dva tulaci
TTITLE12=Kapitan Kid - Krinolina
TTITLE13=Rackove - Reka huci
TTITLE14=Akaty - Az se vratime pod Mednik
TTITLE15=Spojene osady Brno - Osadou zni stara pisen
TTITLE16=Paberky Marko Cermaka - Laska lehkomyslna
TTITLE17=Spojene osady Praha - Trampe, kamarade
TTITLE18=Wabi Danek - Fram
TTITLE19=Spojene osady Praha - Satecek (Uz se mi tvuj satek v dali straci)
TTITLE20=KTO - Je sobota, v kapse mam prachy
TTITLE21=Udoli desu - Vlajka
EXTD=
EXTT0=
EXTT1=
EXTT2=
EXTT3=
EXTT4=
EXTT5=
EXTT6=
EXTT7=
EXTT8=
EXTT9=
EXTT10=
EXTT11=
EXTT12=
EXTT13=
EXTT14=
EXTT15=
EXTT16=
EXTT17=
EXTT18=
EXTT19=
EXTT20=
EXTT21=
PLAYORDER=
